# xmcd
#
# Track frame offsets:
#	150
#	14097
#	27862
#	42976
#	56873
#	70176
#	82724
#	96155
#	108824
#	122847
#	136542
#	150392
#
# Disc length: 2188 seconds
#
# Revision: 0
# Processed by: cddbd v1.5.2PL0 Copyright (c) Steve Scherf et al.
# Submitted via: dBpowerAMP V4.0
#
DISCID=8f088a0c
DTITLE=Operacion Triunfo - Eurovision 2004
DYEAR=2004
DGENRE=Pop
TTITLE0=Vicente - Se me va la vida
TTITLE1=Ramon - Todo vuelve a importar
TTITLE2=Miguel - Amor de madrugada
TTITLE3=Davinia - Mi obsesion
TTITLE4=Vicente - Nadie como tu
TTITLE5=Ramon - Para llenarme de ti
TTITLE6=Miguel - Hoy te quiero mas
TTITLE7=Davinia - Quiero tu amor
TTITLE8=Vicente - Veinte años mas
TTITLE9=Ramon - Cuestion de alma
TTITLE10=Miguel - Devuelveme
TTITLE11=Davinia - Como quieres que te quiera
EXTD=
EXTT0=
EXTT1=
EXTT2=
EXTT3=
EXTT4=
EXTT5=
EXTT6=
EXTT7=
EXTT8=
EXTT9=
EXTT10=
EXTT11=
PLAYORDER=
